<mxfile host="app.diagrams.net" modified="2020-11-12T13:26:28.181Z" agent="5.0 (Windows NT 10.0; Win64; x64) AppleWebKit/537.36 (KHTML, like Gecko) Chrome/86.0.4240.193 Safari/537.36" etag="ijyZg2Zgd11LOvgVbxep" version="13.8.6" type="github">
  <diagram id="prtHgNgQTEPvFCAcTncT" name="Page-1">
    <mxGraphModel dx="1447" dy="803" grid="1" gridSize="10" guides="1" tooltips="1" connect="1" arrows="1" fold="1" page="1" pageScale="1" pageWidth="827" pageHeight="1169" backgroundImage="{&quot;src&quot;:&quot;https://sun9-62.userapi.com/bUwdQ_r1Hbyqh9aFNi7pPQg1DMhLqKl3jtLLug/gmX9P6yV-Qw.jpg&quot;,&quot;width&quot;:&quot;1279&quot;,&quot;height&quot;:&quot;381&quot;}" math="0" shadow="0">
      <root>
        <mxCell id="0" />
        <mxCell id="1" parent="0" />
        <mxCell id="dAuIzSRJb59oHiqUjFUF-1" value="&lt;font style=&quot;font-size: 16px&quot;&gt;Yз&lt;/font&gt;" style="text;html=1;strokeColor=none;fillColor=none;align=center;verticalAlign=middle;whiteSpace=wrap;rounded=0;" vertex="1" parent="1">
          <mxGeometry x="30" y="70" width="40" height="30" as="geometry" />
        </mxCell>
        <mxCell id="dAuIzSRJb59oHiqUjFUF-2" value="&lt;font style=&quot;font-size: 32px&quot;&gt;-&lt;/font&gt;" style="text;html=1;strokeColor=none;fillColor=none;align=center;verticalAlign=middle;whiteSpace=wrap;rounded=0;" vertex="1" parent="1">
          <mxGeometry x="130" y="150" width="40" height="20" as="geometry" />
        </mxCell>
        <mxCell id="dAuIzSRJb59oHiqUjFUF-6" value="&lt;span style=&quot;font-family: &amp;#34;times new roman&amp;#34; , serif&quot;&gt;&lt;font style=&quot;font-size: 22px&quot;&gt;ε&lt;/font&gt;&lt;/span&gt;" style="text;whiteSpace=wrap;html=1;" vertex="1" parent="1">
          <mxGeometry x="180" y="60" width="30" height="30" as="geometry" />
        </mxCell>
        <mxCell id="dAuIzSRJb59oHiqUjFUF-7" value="&lt;font style=&quot;font-size: 16px&quot;&gt;УПЭ&lt;/font&gt;" style="text;html=1;strokeColor=none;fillColor=none;align=center;verticalAlign=middle;whiteSpace=wrap;rounded=0;" vertex="1" parent="1">
          <mxGeometry x="410" y="60" width="40" height="20" as="geometry" />
        </mxCell>
        <mxCell id="dAuIzSRJb59oHiqUjFUF-10" value="&lt;font style=&quot;font-size: 16px&quot;&gt;ИМ&lt;/font&gt;" style="text;html=1;strokeColor=none;fillColor=none;align=center;verticalAlign=middle;whiteSpace=wrap;rounded=0;" vertex="1" parent="1">
          <mxGeometry x="550" y="40" width="40" height="20" as="geometry" />
        </mxCell>
        <mxCell id="dAuIzSRJb59oHiqUjFUF-12" value="&lt;span style=&quot;color: rgb(0, 0, 0); font-family: helvetica; font-size: 16px; font-style: normal; font-weight: 400; letter-spacing: normal; text-align: center; text-indent: 0px; text-transform: none; word-spacing: 0px; background-color: rgb(248, 249, 250); display: inline; float: none;&quot;&gt;ИМ&lt;/span&gt;" style="text;whiteSpace=wrap;html=1;" vertex="1" parent="1">
          <mxGeometry x="740" y="30" width="50" height="30" as="geometry" />
        </mxCell>
        <mxCell id="dAuIzSRJb59oHiqUjFUF-13" value="&lt;span style=&quot;color: rgb(0 , 0 , 0) ; font-family: &amp;#34;helvetica&amp;#34; ; font-size: 16px ; font-style: normal ; font-weight: 400 ; letter-spacing: normal ; text-align: center ; text-indent: 0px ; text-transform: none ; word-spacing: 0px ; background-color: rgb(248 , 249 , 250) ; display: inline ; float: none&quot;&gt;РО&lt;/span&gt;" style="text;whiteSpace=wrap;html=1;" vertex="1" parent="1">
          <mxGeometry x="860" y="50" width="50" height="30" as="geometry" />
        </mxCell>
        <mxCell id="dAuIzSRJb59oHiqUjFUF-14" value="&lt;span style=&quot;color: rgb(0 , 0 , 0) ; font-family: &amp;#34;helvetica&amp;#34; ; font-size: 16px ; font-style: normal ; font-weight: 400 ; letter-spacing: normal ; text-align: center ; text-indent: 0px ; text-transform: none ; word-spacing: 0px ; background-color: rgb(248 , 249 , 250) ; display: inline ; float: none&quot;&gt;ОУ&lt;/span&gt;" style="text;whiteSpace=wrap;html=1;" vertex="1" parent="1">
          <mxGeometry x="1000" y="30" width="50" height="30" as="geometry" />
        </mxCell>
        <mxCell id="dAuIzSRJb59oHiqUjFUF-15" value="&lt;div style=&quot;text-align: center&quot;&gt;&lt;font face=&quot;helvetica&quot; style=&quot;font-size: 20px&quot;&gt;f&lt;/font&gt;&lt;/div&gt;" style="text;whiteSpace=wrap;html=1;" vertex="1" parent="1">
          <mxGeometry x="1140" width="50" height="30" as="geometry" />
        </mxCell>
        <mxCell id="dAuIzSRJb59oHiqUjFUF-16" value="" style="endArrow=classic;html=1;startSize=5;" edge="1" parent="1">
          <mxGeometry width="50" height="50" relative="1" as="geometry">
            <mxPoint x="1170" y="102" as="sourcePoint" />
            <mxPoint x="1281" y="102" as="targetPoint" />
          </mxGeometry>
        </mxCell>
        <mxCell id="dAuIzSRJb59oHiqUjFUF-17" value="&lt;font style=&quot;font-size: 16px&quot;&gt;Y&lt;sub&gt;ДОС&lt;/sub&gt;&lt;/font&gt;" style="text;html=1;strokeColor=none;fillColor=none;align=center;verticalAlign=middle;whiteSpace=wrap;rounded=0;" vertex="1" parent="1">
          <mxGeometry x="270" y="290" width="40" height="30" as="geometry" />
        </mxCell>
      </root>
    </mxGraphModel>
  </diagram>
</mxfile>
